
<svg version="1.1" class="highcharts-root" style="font-family:&quot;lucida grande&quot;, &quot;lucida sans unicode&quot;, arial, helvetica, sans-serif;font-size:12px;" xmlns="http://www.w3.org/2000/svg" viewBox="0 0 584 400">
	<desc>Created with Highcharts 5.0.12
	</desc>
	<defs>
		<clipPath id="highcharts-p76r99i-1">
			<rect x="0" y="0" width="564" height="321" fill="none">
			</rect>
		</clipPath>
	</defs>
	<rect fill="#ffffff" class="highcharts-background" x="0" y="0" width="584" height="400" rx="0" ry="0">
	</rect>
	<rect fill="none" class="highcharts-plot-background" x="10" y="63" width="564" height="321">
	</rect>
	<g class="highcharts-grid highcharts-xaxis-grid ">
		<path fill="none" stroke="#e6e6e6" stroke-width="1" class="highcharts-grid-line" d="M 51.5 63 L 51.5 384" opacity="1">
		</path>
		<path fill="none" stroke="#e6e6e6" stroke-width="1" class="highcharts-grid-line" d="M 180.5 63 L 180.5 384" opacity="1">
		</path>
		<path fill="none" stroke="#e6e6e6" stroke-width="1" class="highcharts-grid-line" d="M 309.5 63 L 309.5 384" opacity="1">
		</path>
		<path fill="none" stroke="#e6e6e6" stroke-width="1" class="highcharts-grid-line" d="M 438.5 63 L 438.5 384" opacity="1">
		</path>
		<path fill="none" stroke="#e6e6e6" stroke-width="1" class="highcharts-grid-line" d="M 567.5 63 L 567.5 384" opacity="1">
		</path>
	</g>
	<g class="highcharts-grid highcharts-yaxis-grid ">
		<path fill="none" stroke="#e6e6e6" stroke-width="1" class="highcharts-grid-line" d="M 10 384.5 L 574 384.5" opacity="1">
		</path>
		<path fill="none" stroke="#e6e6e6" stroke-width="1" class="highcharts-grid-line" d="M 10 304.5 L 574 304.5" opacity="1">
		</path>
		<path fill="none" stroke="#e6e6e6" stroke-width="1" class="highcharts-grid-line" d="M 10 224.5 L 574 224.5" opacity="1">
		</path>
		<path fill="none" stroke="#e6e6e6" stroke-width="1" class="highcharts-grid-line" d="M 10 143.5 L 574 143.5" opacity="1">
		</path>
		<path fill="none" stroke="#e6e6e6" stroke-width="1" class="highcharts-grid-line" d="M 10 63.5 L 574 63.5" opacity="1">
		</path>
	</g>
	<g class="highcharts-grid highcharts-yaxis-grid ">
		<path fill="none" class="highcharts-grid-line" d="M 10 384.5 L 574 384.5" opacity="1">
		</path>
		<path fill="none" class="highcharts-grid-line" d="M 10 304.5 L 574 304.5" opacity="1">
		</path>
		<path fill="none" class="highcharts-grid-line" d="M 10 224.5 L 574 224.5" opacity="1">
		</path>
		<path fill="none" class="highcharts-grid-line" d="M 10 143.5 L 574 143.5" opacity="1">
		</path>
		<path fill="none" class="highcharts-grid-line" d="M 10 63.5 L 574 63.5" opacity="1">
		</path>
	</g>
	<rect fill="none" class="highcharts-plot-border" x="10" y="63" width="564" height="321">
	</rect>
	<g class="highcharts-axis highcharts-xaxis ">
		<path fill="none" class="highcharts-axis-line" stroke="#ccd6eb" stroke-width="1" d="M 10 384.5 L 574 384.5">
		</path>
	</g>
	<g class="highcharts-axis highcharts-yaxis ">
		<path fill="none" class="highcharts-axis-line" d="M 10 63 L 10 384">
		</path>
	</g>
	<g class="highcharts-axis highcharts-yaxis ">
		<path fill="none" class="highcharts-axis-line" d="M 574 63 L 574 384">
		</path>
	</g>
	<g class="highcharts-series-group">
		<g class="highcharts-series highcharts-series-0 highcharts-line-series highcharts-color-0 " transform="translate(10,63) scale(1 1)" clip-path="url(#highcharts-p76r99i-1)">
			<path fill="none" d="M 5.5 229.6 L 23.9 234.2 L 42.3 71.0 L 60.8 60.8 L 79.2 57.3 L 97.6 56.3 L 116.1 84.4 L 134.5 227.3 L 152.9 232.0 L 171.4 71.2 L 189.8 17.0 L 208.2 48.6 L 226.7 38.8 L 245.1 39.9 L 263.5 215.0 L 282 222.1 L 300.4 42.4 L 318.8 37.5 L 337.2 49.4 L 355.7 64.7 L 374.1 127.9 L 392.5 227.3 L 411.0 243.9 L 429.4 111.7 L 447.8 48.5 L 466.3 46.5 L 484.7 68.9 L 503.1 90.2 L 521.6 226.4 L 540.0 212.1 L 558.4 63.1" class="highcharts-graph" stroke="#7cb5ec" stroke-width="4" stroke-linejoin="round" stroke-linecap="round">
			</path>
			<path fill="none" d="M -4.4 229.6 L 5.5 229.6 L 23.9 234.2 L 42.3 71.0 L 60.8 60.8 L 79.2 57.3 L 97.6 56.3 L 116.1 84.4 L 134.5 227.3 L 152.9 232.0 L 171.4 71.2 L 189.8 17.0 L 208.2 48.6 L 226.7 38.8 L 245.1 39.9 L 263.5 215.0 L 282 222.1 L 300.4 42.4 L 318.8 37.5 L 337.2 49.4 L 355.7 64.7 L 374.1 127.9 L 392.5 227.3 L 411.0 243.9 L 429.4 111.7 L 447.8 48.5 L 466.3 46.5 L 484.7 68.9 L 503.1 90.2 L 521.6 226.4 L 540.0 212.1 L 558.4 63.1 L 568.4 63.1" stroke-linejoin="round" visibility="visible" stroke="rgb(192,192,192)" stroke-opacity="0.0" stroke-width="24" class="highcharts-tracker" style="cursor:pointer;">
			</path>
		</g>
		<g class="highcharts-markers highcharts-series-0 highcharts-line-series highcharts-color-0 highcharts-tracker" transform="translate(10,63) scale(1 1)" style="cursor:pointer;" clip-path="none">
			<path fill="#7cb5ec" d="M 9 230 A 4 4 0 1 1 8.9 229.9 Z" stroke="#ffffff" stroke-width="1" class="highcharts-point highcharts-color-0">
			</path>
			<path fill="#7cb5ec" d="M 27 234 A 4 4 0 1 1 26.9 233.9 Z" stroke="#ffffff" stroke-width="1" class="highcharts-point highcharts-color-0">
			</path>
			<path fill="#7cb5ec" d="M 46 71 A 4 4 0 1 1 45.9 70.9 Z" stroke="#ffffff" stroke-width="1" class="highcharts-point highcharts-color-0">
			</path>
			<path fill="#7cb5ec" d="M 64 61 A 4 4 0 1 1 63.9 60.9 Z" stroke="#ffffff" stroke-width="1" class="highcharts-point highcharts-color-0">
			</path>
			<path fill="#7cb5ec" d="M 83 57 A 4 4 0 1 1 82.9 56.9 Z" stroke="#ffffff" stroke-width="1" class="highcharts-point highcharts-color-0">
			</path>
			<path fill="#7cb5ec" d="M 101 56 A 4 4 0 1 1 100.9 55.9 Z" stroke="#ffffff" stroke-width="1" class="highcharts-point highcharts-color-0">
			</path>
			<path fill="#7cb5ec" d="M 120 84 A 4 4 0 1 1 119.9 83.9 Z" stroke="#ffffff" stroke-width="1" class="highcharts-point highcharts-color-0">
			</path>
			<path fill="#7cb5ec" d="M 138 227 A 4 4 0 1 1 137.9 226.9 Z" stroke="#ffffff" stroke-width="1" class="highcharts-point highcharts-color-0">
			</path>
			<path fill="#7cb5ec" d="M 156 232 A 4 4 0 1 1 155.9 231.9 Z" stroke="#ffffff" stroke-width="1" class="highcharts-point highcharts-color-0">
			</path>
			<path fill="#7cb5ec" d="M 175 71 A 4 4 0 1 1 174.9 70.9 Z" stroke="#ffffff" stroke-width="1" class="highcharts-point highcharts-color-0">
			</path>
			<path fill="#7cb5ec" d="M 193 17 A 4 4 0 1 1 192.9 16.9 Z" stroke="#ffffff" stroke-width="1" class="highcharts-point highcharts-color-0">
			</path>
			<path fill="#7cb5ec" d="M 212 49 A 4 4 0 1 1 211.9 48.9 Z" stroke="#ffffff" stroke-width="1" class="highcharts-point highcharts-color-0">
			</path>
			<path fill="#7cb5ec" d="M 230 39 A 4 4 0 1 1 229.9 38.9 Z" stroke="#ffffff" stroke-width="1" class="highcharts-point highcharts-color-0">
			</path>
			<path fill="#7cb5ec" d="M 249 40 A 4 4 0 1 1 248.9 39.9 Z" stroke="#ffffff" stroke-width="1" class="highcharts-point highcharts-color-0">
			</path>
			<path fill="#7cb5ec" d="M 267 215 A 4 4 0 1 1 266.9 214.9 Z" stroke="#ffffff" stroke-width="1" class="highcharts-point highcharts-color-0">
			</path>
			<path fill="#7cb5ec" d="M 286 222 A 4 4 0 1 1 285.9 221.9 Z" stroke="#ffffff" stroke-width="1" class="highcharts-point highcharts-color-0">
			</path>
			<path fill="#7cb5ec" d="M 304 42 A 4 4 0 1 1 303.9 41.9 Z" stroke="#ffffff" stroke-width="1" class="highcharts-point highcharts-color-0">
			</path>
			<path fill="#7cb5ec" d="M 322 38 A 4 4 0 1 1 321.9 37.9 Z" stroke="#ffffff" stroke-width="1" class="highcharts-point highcharts-color-0">
			</path>
			<path fill="#7cb5ec" d="M 341 49 A 4 4 0 1 1 340.9 48.9 Z" stroke="#ffffff" stroke-width="1" class="highcharts-point highcharts-color-0">
			</path>
			<path fill="#7cb5ec" d="M 359 65 A 4 4 0 1 1 358.9 64.9 Z" stroke="#ffffff" stroke-width="1" class="highcharts-point highcharts-color-0">
			</path>
			<path fill="#7cb5ec" d="M 378 128 A 4 4 0 1 1 377.9 127.9 Z" stroke="#ffffff" stroke-width="1" class="highcharts-point highcharts-color-0">
			</path>
			<path fill="#7cb5ec" d="M 396 227 A 4 4 0 1 1 395.9 226.9 Z" stroke="#ffffff" stroke-width="1" class="highcharts-point highcharts-color-0">
			</path>
			<path fill="#7cb5ec" d="M 415 244 A 4 4 0 1 1 414.9 243.9 Z" stroke="#ffffff" stroke-width="1" class="highcharts-point highcharts-color-0">
			</path>
			<path fill="#7cb5ec" d="M 433 112 A 4 4 0 1 1 432.9 111.9 Z" stroke="#ffffff" stroke-width="1" class="highcharts-point highcharts-color-0">
			</path>
			<path fill="#7cb5ec" d="M 451 49 A 4 4 0 1 1 450.9 48.9 Z" stroke="#ffffff" stroke-width="1" class="highcharts-point highcharts-color-0">
			</path>
			<path fill="#7cb5ec" d="M 470 47 A 4 4 0 1 1 469.9 46.9 Z" stroke="#ffffff" stroke-width="1" class="highcharts-point highcharts-color-0">
			</path>
			<path fill="#7cb5ec" d="M 488 69 A 4 4 0 1 1 487.9 68.9 Z" stroke="#ffffff" stroke-width="1" class="highcharts-point highcharts-color-0">
			</path>
			<path fill="#7cb5ec" d="M 507 90 A 4 4 0 1 1 506.9 89.9 Z" stroke="#ffffff" stroke-width="1" class="highcharts-point highcharts-color-0">
			</path>
			<path fill="#7cb5ec" d="M 525 226 A 4 4 0 1 1 524.9 225.9 Z" stroke="#ffffff" stroke-width="1" class="highcharts-point highcharts-color-0">
			</path>
			<path fill="#7cb5ec" d="M 544 212 A 4 4 0 1 1 543.9 211.9 Z" stroke="#ffffff" stroke-width="1" class="highcharts-point highcharts-color-0">
			</path>
			<path fill="#7cb5ec" d="M 562 63 A 4 4 0 1 1 561.9 62.9 Z" stroke="#ffffff" stroke-width="1" class="highcharts-point highcharts-color-0">
			</path>
		</g>
		<g class="highcharts-series highcharts-series-1 highcharts-line-series highcharts-color-1 " transform="translate(10,63) scale(1 1)" clip-path="url(#highcharts-p76r99i-1)">
			<path fill="none" d="M 5.5 251.2 L 23.9 255.0 L 42.3 138.7 L 60.8 130.3 L 79.2 128.9 L 97.6 127.0 L 116.1 145.7 L 134.5 248.6 L 152.9 253.5 L 171.4 136.0 L 189.8 89.3 L 208.2 118.7 L 226.7 110.8 L 245.1 108.5 L 263.5 237.3 L 282 243.8 L 300.4 118.1 L 318.8 116.0 L 337.2 122.1 L 355.7 133.4 L 374.1 178.2 L 392.5 248.5 L 411.0 262.2 L 429.4 168.4 L 447.8 117.7 L 466.3 118.2 L 484.7 138.1 L 503.1 151.9 L 521.6 248.4 L 540.0 239.0 L 558.4 134.8" class="highcharts-graph" stroke="#434348" stroke-width="2" stroke-linejoin="round" stroke-linecap="round">
			</path>
			<path fill="none" d="M -4.4 251.2 L 5.5 251.2 L 23.9 255.0 L 42.3 138.7 L 60.8 130.3 L 79.2 128.9 L 97.6 127.0 L 116.1 145.7 L 134.5 248.6 L 152.9 253.5 L 171.4 136.0 L 189.8 89.3 L 208.2 118.7 L 226.7 110.8 L 245.1 108.5 L 263.5 237.3 L 282 243.8 L 300.4 118.1 L 318.8 116.0 L 337.2 122.1 L 355.7 133.4 L 374.1 178.2 L 392.5 248.5 L 411.0 262.2 L 429.4 168.4 L 447.8 117.7 L 466.3 118.2 L 484.7 138.1 L 503.1 151.9 L 521.6 248.4 L 540.0 239.0 L 558.4 134.8 L 568.4 134.8" stroke-linejoin="round" visibility="visible" stroke="rgb(192,192,192)" stroke-opacity="0.0" stroke-width="22" class="highcharts-tracker" style="cursor:pointer;">
			</path>
		</g>
		<g class="highcharts-markers highcharts-series-1 highcharts-line-series highcharts-color-1 highcharts-tracker" transform="translate(10,63) scale(1 1)" style="cursor:pointer;" clip-path="none">
			<path fill="#434348" d="M 5 247 L 9 251 5 255 1 251 Z" stroke="#ffffff" stroke-width="1" class="highcharts-point highcharts-color-1">
			</path>
			<path fill="#434348" d="M 23 251 L 27 255 23 259 19 255 Z" stroke="#ffffff" stroke-width="1" class="highcharts-point highcharts-color-1">
			</path>
			<path fill="#434348" d="M 42 135 L 46 139 42 143 38 139 Z" stroke="#ffffff" stroke-width="1" class="highcharts-point highcharts-color-1">
			</path>
			<path fill="#434348" d="M 60 126 L 64 130 60 134 56 130 Z" stroke="#ffffff" stroke-width="1" class="highcharts-point highcharts-color-1">
			</path>
			<path fill="#434348" d="M 79 125 L 83 129 79 133 75 129 Z" stroke="#ffffff" stroke-width="1" class="highcharts-point highcharts-color-1">
			</path>
			<path fill="#434348" d="M 97 123 L 101 127 97 131 93 127 Z" stroke="#ffffff" stroke-width="1" class="highcharts-point highcharts-color-1">
			</path>
			<path fill="#434348" d="M 116 142 L 120 146 116 150 112 146 Z" stroke="#ffffff" stroke-width="1" class="highcharts-point highcharts-color-1">
			</path>
			<path fill="#434348" d="M 134 245 L 138 249 134 253 130 249 Z" stroke="#ffffff" stroke-width="1" class="highcharts-point highcharts-color-1">
			</path>
			<path fill="#434348" d="M 152 250 L 156 254 152 258 148 254 Z" stroke="#ffffff" stroke-width="1" class="highcharts-point highcharts-color-1">
			</path>
			<path fill="#434348" d="M 171 132 L 175 136 171 140 167 136 Z" stroke="#ffffff" stroke-width="1" class="highcharts-point highcharts-color-1">
			</path>
			<path fill="#434348" d="M 189 85 L 193 89 189 93 185 89 Z" stroke="#ffffff" stroke-width="1" class="highcharts-point highcharts-color-1">
			</path>
			<path fill="#434348" d="M 208 115 L 212 119 208 123 204 119 Z" stroke="#ffffff" stroke-width="1" class="highcharts-point highcharts-color-1">
			</path>
			<path fill="#434348" d="M 226 107 L 230 111 226 115 222 111 Z" stroke="#ffffff" stroke-width="1" class="highcharts-point highcharts-color-1">
			</path>
			<path fill="#434348" d="M 245 105 L 249 109 245 113 241 109 Z" stroke="#ffffff" stroke-width="1" class="highcharts-point highcharts-color-1">
			</path>
			<path fill="#434348" d="M 263 233 L 267 237 263 241 259 237 Z" stroke="#ffffff" stroke-width="1" class="highcharts-point highcharts-color-1">
			</path>
			<path fill="#434348" d="M 282 240 L 286 244 282 248 278 244 Z" stroke="#ffffff" stroke-width="1" class="highcharts-point highcharts-color-1">
			</path>
			<path fill="#434348" d="M 300 114 L 304 118 300 122 296 118 Z" stroke="#ffffff" stroke-width="1" class="highcharts-point highcharts-color-1">
			</path>
			<path fill="#434348" d="M 318 112 L 322 116 318 120 314 116 Z" stroke="#ffffff" stroke-width="1" class="highcharts-point highcharts-color-1">
			</path>
			<path fill="#434348" d="M 337 118 L 341 122 337 126 333 122 Z" stroke="#ffffff" stroke-width="1" class="highcharts-point highcharts-color-1">
			</path>
			<path fill="#434348" d="M 355 129 L 359 133 355 137 351 133 Z" stroke="#ffffff" stroke-width="1" class="highcharts-point highcharts-color-1">
			</path>
			<path fill="#434348" d="M 374 174 L 378 178 374 182 370 178 Z" stroke="#ffffff" stroke-width="1" class="highcharts-point highcharts-color-1">
			</path>
			<path fill="#434348" d="M 392 245 L 396 249 392 253 388 249 Z" stroke="#ffffff" stroke-width="1" class="highcharts-point highcharts-color-1">
			</path>
			<path fill="#434348" d="M 411 258 L 415 262 411 266 407 262 Z" stroke="#ffffff" stroke-width="1" class="highcharts-point highcharts-color-1">
			</path>
			<path fill="#434348" d="M 429 164 L 433 168 429 172 425 168 Z" stroke="#ffffff" stroke-width="1" class="highcharts-point highcharts-color-1">
			</path>
			<path fill="#434348" d="M 447 114 L 451 118 447 122 443 118 Z" stroke="#ffffff" stroke-width="1" class="highcharts-point highcharts-color-1">
			</path>
			<path fill="#434348" d="M 466 114 L 470 118 466 122 462 118 Z" stroke="#ffffff" stroke-width="1" class="highcharts-point highcharts-color-1">
			</path>
			<path fill="#434348" d="M 484 134 L 488 138 484 142 480 138 Z" stroke="#ffffff" stroke-width="1" class="highcharts-point highcharts-color-1">
			</path>
			<path fill="#434348" d="M 503 148 L 507 152 503 156 499 152 Z" stroke="#ffffff" stroke-width="1" class="highcharts-point highcharts-color-1">
			</path>
			<path fill="#434348" d="M 521 244 L 525 248 521 252 517 248 Z" stroke="#ffffff" stroke-width="1" class="highcharts-point highcharts-color-1">
			</path>
			<path fill="#434348" d="M 540 235 L 544 239 540 243 536 239 Z" stroke="#ffffff" stroke-width="1" class="highcharts-point highcharts-color-1">
			</path>
			<path fill="#434348" d="M 558 131 L 562 135 558 139 554 135 Z" stroke="#ffffff" stroke-width="1" class="highcharts-point highcharts-color-1">
			</path>
		</g>
	</g>
	<g class="highcharts-button highcharts-contextbutton" style="cursor:pointer;" stroke-linecap="round" transform="translate(550,10)">
		<title>Chart context menu
		</title>
		<rect fill="#ffffff" class=" highcharts-button-box" x="0.5" y="0.5" width="24" height="22" rx="2" ry="2" stroke="none" stroke-width="1">
		</rect>
		<path fill="#666666" d="M 6 6.5 L 20 6.5 M 6 11.5 L 20 11.5 M 6 16.5 L 20 16.5" class="highcharts-button-symbol" stroke="#666666" stroke-width="3">
		</path>
		<text x="0" style="font-weight:normal;color:#333333;fill:#333333;" y="12">
		</text>
	</g>
	<text x="292" text-anchor="middle" class="highcharts-title" style="color:#333333;font-size:18px;fill:#333333;" y="24">
		<tspan>Daily visits at www.highcharts.com
		</tspan>
	</text>
	<text x="292" text-anchor="middle" class="highcharts-subtitle" style="color:#666666;fill:#666666;" y="46">
		<tspan>Source: Google Analytics
		</tspan>
	</text>
	<g class="highcharts-legend" transform="translate(10,30)">
		<rect fill="none" class="highcharts-legend-box" rx="0" ry="0" x="0" y="0" width="215" height="27" visibility="visible">
		</rect>
		<g>
			<g>
				<g class="highcharts-legend-item highcharts-line-series highcharts-color-0 highcharts-series-0" transform="translate(8,3)">
					<path fill="none" d="M 0 11 L 16 11" class="highcharts-graph" stroke="#7cb5ec" stroke-width="4">
					</path>
					<path fill="#7cb5ec" d="M 12 11 A 4 4 0 1 1 11.9 10.9 Z" class="highcharts-point" stroke="#ffffff" stroke-width="1">
					</path>
					<text x="21" style="color:#333333;font-size:12px;font-weight:bold;cursor:pointer;fill:#333333;" text-anchor="start" y="15">
						<tspan>Visits
						</tspan>
					</text>
				</g>
				<g class="highcharts-legend-item highcharts-line-series highcharts-color-1 highcharts-series-1" transform="translate(85,3)">
					<path fill="none" d="M 0 11 L 16 11" class="highcharts-graph" stroke="#434348" stroke-width="2">
					</path>
					<path fill="#434348" d="M 8 7 L 12 11 8 15 4 11 Z" class="highcharts-point" stroke="#ffffff" stroke-width="1">
					</path>
					<text x="21" y="15" style="color:#333333;font-size:12px;font-weight:bold;cursor:pointer;fill:#333333;" text-anchor="start">
						<tspan>Unique Visitors
						</tspan>
					</text>
				</g>
			</g>
		</g>
	</g>
	<g class="highcharts-axis-labels highcharts-xaxis-labels ">
		<text x="55.3" style="color:#666666;cursor:default;font-size:11px;fill:#666666;" text-anchor="start" transform="translate(0,0)" y="381" opacity="1">
			<tspan>11. Mar
			</tspan>
		</text>
		<text x="184.4" style="color:#666666;cursor:default;font-size:11px;fill:#666666;" text-anchor="start" transform="translate(0,0)" y="381" opacity="1">
			<tspan>18. Mar
			</tspan>
		</text>
		<text x="313.4" style="color:#666666;cursor:default;font-size:11px;fill:#666666;" text-anchor="start" transform="translate(0,0)" y="381" opacity="1">
			<tspan>25. Mar
			</tspan>
		</text>
		<text x="442.4" style="color:#666666;cursor:default;font-size:11px;fill:#666666;" text-anchor="start" transform="translate(0,0)" y="381" opacity="1">
			<tspan>1. Apr
			</tspan>
		</text>
		<text x="571.4" style="color:#666666;cursor:default;font-size:11px;fill:#666666;" text-anchor="start" transform="translate(0,0)" y="381" opacity="1">
			<tspan>
			</tspan>
			<title> 8. Apr
			</title>
		</text>
	</g>
	<g class="highcharts-axis-labels highcharts-yaxis-labels ">
		<text x="0" style="color:#666666;cursor:default;font-size:11px;fill:#666666;" text-anchor="start" transform="translate(0,0)" y="-9999">
			<tspan>0
			</tspan>
		</text>
		<text x="13" style="color:#666666;cursor:default;font-size:11px;fill:#666666;" text-anchor="start" transform="translate(0,0)" y="320" opacity="1">
			<tspan>5 000
			</tspan>
		</text>
		<text x="13" style="color:#666666;cursor:default;font-size:11px;fill:#666666;" text-anchor="start" transform="translate(0,0)" y="240" opacity="1">
			<tspan>10 000
			</tspan>
		</text>
		<text x="13" style="color:#666666;cursor:default;font-size:11px;fill:#666666;" text-anchor="start" transform="translate(0,0)" y="159" opacity="1">
			<tspan>15 000
			</tspan>
		</text>
		<text x="13" style="color:#666666;cursor:default;font-size:11px;fill:#666666;" text-anchor="start" transform="translate(0,0)" y="79" opacity="1">
			<tspan>20 000
			</tspan>
		</text>
	</g>
	<g class="highcharts-axis-labels highcharts-yaxis-labels ">
		<text x="0" style="color:#666666;cursor:default;font-size:11px;fill:#666666;" text-anchor="end" transform="translate(0,0)" y="-9999">
			<tspan>0
			</tspan>
		</text>
		<text x="571" style="color:#666666;cursor:default;font-size:11px;fill:#666666;" text-anchor="end" transform="translate(0,0)" y="320" opacity="1">
			<tspan>5 000
			</tspan>
		</text>
		<text x="571" style="color:#666666;cursor:default;font-size:11px;fill:#666666;" text-anchor="end" transform="translate(0,0)" y="240" opacity="1">
			<tspan>10 000
			</tspan>
		</text>
		<text x="571" style="color:#666666;cursor:default;font-size:11px;fill:#666666;" text-anchor="end" transform="translate(0,0)" y="159" opacity="1">
			<tspan>15 000
			</tspan>
		</text>
		<text x="571" style="color:#666666;cursor:default;font-size:11px;fill:#666666;" text-anchor="end" transform="translate(0,0)" y="79" opacity="1">
			<tspan>20 000
			</tspan>
		</text>
	</g>
	<text x="574" class="highcharts-credits" text-anchor="end" style="cursor:pointer;color:#999999;font-size:9px;fill:#999999;" y="395">Highcharts.com
	</text>
</svg>