
<svg version="1.1" class="highcharts-root" style="font-family:&quot;lucida grande&quot;, &quot;lucida sans unicode&quot;, arial, helvetica, sans-serif;font-size:12px;" xmlns="http://www.w3.org/2000/svg" viewBox="0 0 584 400">
	<desc>Created with Highcharts 5.0.12
	</desc>
	<defs>
		<clipPath id="highcharts-f7mbnqj-1">
			<rect x="0" y="0" width="499" height="299" fill="none">
			</rect>
		</clipPath>
		<linearGradient x1="0" y1="0" x2="0" y2="1" id="highcharts-f7mbnqj-2">
			<stop offset="0" stop-color="#7cb5ec" stop-opacity="1">
			</stop>
			<stop offset="1" stop-color="rgb(124,181,236)" stop-opacity="0">
			</stop>
		</linearGradient>
	</defs>
	<rect fill="#ffffff" class="highcharts-background" x="0" y="0" width="584" height="400" rx="0" ry="0">
	</rect>
	<rect fill="none" class="highcharts-plot-background" x="75" y="63" width="499" height="299">
	</rect>
	<g class="highcharts-grid highcharts-xaxis-grid ">
		<path fill="none" class="highcharts-grid-line" d="M 98.5 63 L 98.5 362" opacity="1">
		</path>
		<path fill="none" class="highcharts-grid-line" d="M 216.5 63 L 216.5 362" opacity="1">
		</path>
		<path fill="none" class="highcharts-grid-line" d="M 333.5 63 L 333.5 362" opacity="1">
		</path>
		<path fill="none" class="highcharts-grid-line" d="M 452.5 63 L 452.5 362" opacity="1">
		</path>
		<path fill="none" class="highcharts-grid-line" d="M 569.5 63 L 569.5 362" opacity="1">
		</path>
	</g>
	<g class="highcharts-grid highcharts-yaxis-grid ">
		<path fill="none" stroke="#e6e6e6" stroke-width="1" class="highcharts-grid-line" d="M 75 362.5 L 574 362.5" opacity="1">
		</path>
		<path fill="none" stroke="#e6e6e6" stroke-width="1" class="highcharts-grid-line" d="M 75 312.5 L 574 312.5" opacity="1">
		</path>
		<path fill="none" stroke="#e6e6e6" stroke-width="1" class="highcharts-grid-line" d="M 75 262.5 L 574 262.5" opacity="1">
		</path>
		<path fill="none" stroke="#e6e6e6" stroke-width="1" class="highcharts-grid-line" d="M 75 213.5 L 574 213.5" opacity="1">
		</path>
		<path fill="none" stroke="#e6e6e6" stroke-width="1" class="highcharts-grid-line" d="M 75 163.5 L 574 163.5" opacity="1">
		</path>
		<path fill="none" stroke="#e6e6e6" stroke-width="1" class="highcharts-grid-line" d="M 75 113.5 L 574 113.5" opacity="1">
		</path>
		<path fill="none" stroke="#e6e6e6" stroke-width="1" class="highcharts-grid-line" d="M 75 62.5 L 574 62.5" opacity="1">
		</path>
	</g>
	<rect fill="none" class="highcharts-plot-border" x="75" y="63" width="499" height="299">
	</rect>
	<g class="highcharts-axis highcharts-xaxis ">
		<path fill="none" class="highcharts-tick" stroke="#ccd6eb" stroke-width="1" d="M 98.5 362 L 98.5 372" opacity="1">
		</path>
		<path fill="none" class="highcharts-tick" stroke="#ccd6eb" stroke-width="1" d="M 216.5 362 L 216.5 372" opacity="1">
		</path>
		<path fill="none" class="highcharts-tick" stroke="#ccd6eb" stroke-width="1" d="M 333.5 362 L 333.5 372" opacity="1">
		</path>
		<path fill="none" class="highcharts-tick" stroke="#ccd6eb" stroke-width="1" d="M 452.5 362 L 452.5 372" opacity="1">
		</path>
		<path fill="none" class="highcharts-tick" stroke="#ccd6eb" stroke-width="1" d="M 569.5 362 L 569.5 372" opacity="1">
		</path>
		<path fill="none" class="highcharts-axis-line" stroke="#ccd6eb" stroke-width="1" d="M 75 362.5 L 574 362.5">
		</path>
	</g>
	<g class="highcharts-axis highcharts-yaxis ">
		<text x="26" text-anchor="middle" transform="translate(0,0) rotate(270 26 212.5)" class="highcharts-axis-title" style="color:#666666;fill:#666666;" y="212.5">
			<tspan>Exchange rate
			</tspan>
		</text>
		<path fill="none" class="highcharts-axis-line" d="M 75 63 L 75 362">
		</path>
	</g>
	<g class="highcharts-series-group">
		<g class="highcharts-series highcharts-series-0 highcharts-area-series highcharts-color-0 " transform="translate(75,63) scale(1 1)" clip-path="url(#highcharts-f7mbnqj-1)">
			<path fill="url(#highcharts-f7mbnqj-2)" d="M 4.8 229.7 L 5.5 234.4 L 6.1 234.7 L 6.8 235.4 L 7.4 244.2 L 8.1 242.9 L 9.4 241.7 L 10.0 244.8 L 10.7 248.1 L 11.3 249.3 L 11.9 251.4 L 12.6 249.9 L 13.9 250.4 L 14.5 251.1 L 15.2 252.5 L 15.8 247.0 L 16.5 242.7 L 17.1 237.1 L 18.4 236.2 L 19.0 236.9 L 19.7 234.8 L 20.3 230.7 L 21.0 232.1 L 21.6 230.5 L 22.9 230.5 L 23.6 233.8 L 24.2 228.7 L 24.8 230.5 L 25.5 224.8 L 26.1 219.9 L 27.4 218.8 L 28.1 222.2 L 28.7 216.8 L 29.4 228.7 L 30.0 235.7 L 30.7 234.0 L 31.9 233.6 L 32.6 233.7 L 33.2 239.3 L 33.9 237.3 L 34.5 236.4 L 35.2 238.3 L 36.5 239.2 L 37.1 240.7 L 37.8 242.9 L 38.4 241.6 L 39.0 246.0 L 39.7 246.1 L 41.0 246.5 L 41.6 245.1 L 42.3 245.1 L 42.9 247.3 L 43.6 242.0 L 44.2 246.2 L 45.5 245.9 L 46.1 244.9 L 46.8 247.6 L 47.4 249.3 L 48.1 251.8 L 48.7 249.7 L 50.0 249.4 L 50.7 247.2 L 51.3 245.1 L 52.0 244.8 L 52.6 249.9 L 53.2 248.9 L 54.5 248.8 L 55.2 249.2 L 55.8 253.8 L 56.5 250.4 L 57.1 250.4 L 57.8 251.9 L 59.1 252.0 L 59.7 251.1 L 60.3 252.4 L 61.0 249.4 L 61.6 243.9 L 62.3 242.9 L 63.6 241.9 L 64.2 241.0 L 64.9 239.8 L 65.5 242.0 L 66.2 237.0 L 66.8 240.3 L 68.1 240.0 L 68.7 244.7 L 69.4 245.4 L 70.0 247.9 L 70.7 247.2 L 71.3 246.9 L 72.6 250.5 L 73.3 249.1 L 73.9 250.5 L 74.5 259.5 L 75.2 260.0 L 75.8 259.7 L 77.1 260.2 L 77.8 258.0 L 78.4 256.9 L 79.1 259.8 L 79.7 257.8 L 80.4 259.5 L 81.6 258.1 L 82.3 259.8 L 82.9 259.8 L 83.6 262.6 L 84.2 264.8 L 84.9 261.5 L 86.2 262.1 L 86.8 262.9 L 87.5 262.3 L 88.1 259.8 L 88.7 259.4 L 89.4 260.6 L 90.7 261.4 L 91.3 261.7 L 92.0 259.6 L 92.6 260.2 L 93.3 267.9 L 93.9 268.4 L 95.2 268.2 L 95.8 268.3 L 96.5 273.4 L 97.1 273.2 L 97.8 274.3 L 98.4 274.6 L 99.7 274.6 L 100.4 273.5 L 101.0 271.5 L 101.7 271.0 L 102.3 263.0 L 102.9 257.6 L 104.2 258.0 L 104.9 259.2 L 105.5 257.0 L 106.2 259.1 L 106.8 253.9 L 107.5 251.2 L 108.8 249.9 L 109.4 253.1 L 110.0 254.9 L 110.7 257.6 L 111.3 256.2 L 112.0 258.1 L 113.3 257.4 L 113.9 258.6 L 114.6 260.5 L 115.2 255.0 L 115.9 257.3 L 116.5 261.5 L 117.8 261.2 L 118.4 259.2 L 119.1 262.2 L 119.7 262.6 L 120.4 264.1 L 121.0 263.3 L 122.3 262.9 L 123.0 260.6 L 123.6 263.2 L 124.2 263.4 L 124.9 267.4 L 125.5 269.3 L 126.8 269.4 L 127.5 271.1 L 128.1 272.3 L 128.8 273.6 L 129.4 272.0 L 130.1 271.4 L 131.3 271.2 L 132.0 272.3 L 132.6 272.7 L 133.3 268.4 L 133.9 267.2 L 134.6 267.6 L 135.9 268.0 L 136.5 269.0 L 137.1 268.3 L 137.8 268.1 L 138.4 268.7 L 139.1 271.3 L 140.4 271.8 L 141.0 274.6 L 141.7 271.5 L 142.3 271.9 L 143.0 267.7 L 143.6 263.2 L 144.9 263.6 L 145.5 265.3 L 146.2 264.6 L 146.8 262.5 L 147.5 264.2 L 148.1 267.5 L 149.4 267.6 L 150.1 267.6 L 150.7 268.1 L 151.3 264.1 L 152.0 265.0 L 152.6 260.6 L 153.9 259.9 L 154.6 261.2 L 155.2 261.8 L 155.9 261.0 L 156.5 269.0 L 157.2 268.0 L 158.4 268.5 L 159.1 267.7 L 159.7 267.5 L 160.4 267.2 L 161.0 261.4 L 161.7 257.6 L 163.0 257.7 L 163.6 259.8 L 164.3 259.4 L 164.9 260.2 L 165.5 263.3 L 166.2 265.7 L 167.5 264.8 L 168.1 266.3 L 168.8 265.9 L 169.4 263.5 L 170.1 268.2 L 170.7 268.7 L 172.0 269.0 L 172.6 269.5 L 173.3 272.2 L 173.9 270.9 L 174.6 270.1 L 175.2 271.2 L 176.5 271.0 L 177.2 271.0 L 177.8 271.5 L 178.5 268.5 L 179.1 269.5 L 179.7 274.5 L 181.0 273.1 L 181.7 271.0 L 182.3 271.4 L 183.0 270.8 L 183.6 277.5 L 184.3 278.4 L 185.6 278.4 L 186.2 278.3 L 186.8 277.4 L 187.5 279.8 L 188.1 278.0 L 188.8 280.3 L 190.1 280.2 L 190.7 280.7 L 191.4 281.3 L 192.0 276.1 L 192.7 273.2 L 193.3 274.1 L 194.6 274.3 L 195.2 276.4 L 195.9 275.8 L 196.5 273.5 L 197.2 271.2 L 197.8 271.9 L 199.1 271.8 L 199.8 272.9 L 200.4 274.0 L 201.0 272.6 L 201.7 270.1 L 202.3 269.2 L 203.6 269.2 L 204.3 271.2 L 204.9 274.2 L 205.6 277.2 L 206.2 279.0 L 206.9 278.8 L 208.1 276.8 L 208.8 275.4 L 209.4 275.1 L 210.1 275.2 L 210.7 275.2 L 211.4 275.2 L 212.7 275.1 L 213.3 274.0 L 214.0 274.6 L 214.6 275.2 L 215.2 276.1 L 215.9 276.1 L 217.2 276.4 L 217.8 277.0 L 218.5 275.0 L 219.1 277.9 L 219.8 278.0 L 220.4 278.1 L 221.7 278.1 L 222.3 278.3 L 223.0 281.0 L 223.6 280.2 L 224.3 276.5 L 224.9 272.2 L 226.2 272.3 L 226.9 272.1 L 227.5 269.3 L 228.2 269.9 L 228.8 269.6 L 229.4 268.9 L 230.7 269.2 L 231.4 269.5 L 232.0 269.2 L 232.7 268.4 L 233.3 266.8 L 234.0 265.6 L 235.3 265.3 L 235.9 266.2 L 236.5 265.6 L 237.2 263.3 L 237.8 264.0 L 238.5 265.4 L 239.8 265.3 L 240.4 263.6 L 241.1 265.3 L 241.7 263.8 L 242.4 267.0 L 243.0 266.1 L 244.3 266.4 L 244.9 263.5 L 245.6 261.0 L 246.2 260.2 L 246.9 261.2 L 247.5 260.7 L 248.8 260.3 L 249.5 262.4 L 250.1 260.9 L 250.7 263.5 L 251.4 264.2 L 252.0 263.8 L 253.3 263.4 L 254.0 264.1 L 254.6 264.1 L 255.3 265.4 L 255.9 264.4 L 256.5 266.4 L 257.8 266.1 L 258.5 268.7 L 259.1 268.1 L 259.8 267.1 L 260.4 264.4 L 261.1 263.5 L 262.4 263.1 L 263.0 264.1 L 263.6 264.5 L 264.3 266.2 L 264.9 264.3 L 265.6 264.2 L 266.9 263.9 L 267.5 264.9 L 268.2 262.2 L 268.8 259.8 L 269.5 259.9 L 270.1 259.7 L 271.4 260.1 L 272.0 259.6 L 272.7 256.4 L 273.3 256.4 L 274.0 256.3 L 274.6 254.5 L 275.9 254.4 L 276.6 255.1 L 277.2 253.3 L 277.8 252.7 L 278.5 252.2 L 279.1 254.5 L 280.4 254.4 L 281.1 254.1 L 281.7 251.4 L 282.4 251.9 L 283.0 250.8 L 283.7 253.4 L 284.9 253.1 L 285.6 252.1 L 286.2 251.1 L 286.9 250.9 L 287.5 250.9 L 288.2 252.8 L 289.5 252.2 L 290.1 250.8 L 290.8 248.3 L 291.4 245.0 L 292.0 246.2 L 292.7 244.0 L 294.0 241.4 L 294.6 241.1 L 295.3 239.8 L 295.9 241.1 L 296.6 240.6 L 297.2 237.8 L 298.5 237.4 L 299.1 237.4 L 299.8 237.8 L 300.4 238.8 L 301.1 226.7 L 301.7 227.0 L 303.0 227.1 L 303.7 223.9 L 304.3 226.2 L 305.0 225.0 L 305.6 225.6 L 306.2 227.9 L 307.5 227.5 L 308.2 226.5 L 308.8 227.6 L 309.5 222.0 L 310.1 225.3 L 310.8 219.8 L 312.1 220.4 L 312.7 221.0 L 313.3 220.8 L 314.0 216.8 L 314.6 214.9 L 315.3 210.8 L 316.6 210.1 L 317.2 210.9 L 317.9 207.7 L 318.5 207.1 L 319.2 209.9 L 319.8 200.4 L 321.1 200.1 L 321.7 209.0 L 322.4 209.9 L 323.0 213.9 L 323.7 211.2 L 324.3 207.4 L 325.6 208.1 L 326.3 215.0 L 326.9 209.2 L 327.5 220.2 L 328.2 218.6 L 328.8 215.7 L 330.1 214.8 L 330.8 217.9 L 331.4 212.8 L 332.1 208.8 L 332.7 208.6 L 333.4 209.9 L 334.6 210.3 L 335.3 211.7 L 335.9 213.9 L 336.6 207.7 L 337.2 206.4 L 337.9 200.9 L 339.2 199.4 L 339.8 198.1 L 340.5 202.2 L 341.1 198.4 L 341.7 191.2 L 342.4 196.3 L 343.7 196.8 L 344.3 194.2 L 345.0 197.7 L 345.6 195.3 L 346.3 197.8 L 346.9 200.8 L 348.2 200.5 L 348.8 196.1 L 349.5 201.7 L 350.1 202.8 L 350.8 201.8 L 351.4 192.2 L 352.7 191.1 L 353.4 195.6 L 354.0 197.7 L 354.7 199.7 L 355.3 197.1 L 355.9 196.2 L 357.2 195.3 L 357.9 197.3 L 358.5 191.8 L 359.2 187.0 L 359.8 191.5 L 360.5 185.4 L 361.8 185.8 L 362.4 187.4 L 363.0 191.2 L 363.7 195.9 L 364.3 193.6 L 365.0 196.9 L 366.3 196.9 L 366.9 195.3 L 367.6 200.0 L 368.2 189.1 L 368.8 185.4 L 369.5 181.6 L 370.8 181.3 L 371.4 181.7 L 372.1 177.9 L 372.7 179.4 L 373.4 181.1 L 374.0 178.1 L 375.3 177.6 L 375.9 176.5 L 376.6 176.9 L 377.2 172.8 L 377.9 173.2 L 378.5 166.3 L 379.8 162.3 L 380.5 161.4 L 381.1 158.3 L 381.8 154.7 L 382.4 151.4 L 383.0 154.9 L 384.3 156.9 L 385.0 154.3 L 385.6 149.9 L 386.3 151.2 L 386.9 139.7 L 387.6 135.2 L 388.9 134.7 L 389.5 137.8 L 390.1 133.7 L 390.8 138.2 L 391.4 119.7 L 392.1 107.4 L 393.4 100.6 L 394.0 109.8 L 394.7 120.8 L 395.3 113.7 L 396.0 116.2 L 396.6 113.7 L 397.9 115.3 L 398.5 117.9 L 399.2 128.5 L 399.8 118.3 L 400.5 128.2 L 401.1 115.9 L 402.4 115.7 L 403.1 116.5 L 403.7 116.3 L 404.3 117.3 L 405.0 122.5 L 405.6 121.2 L 406.9 122.1 L 407.6 118.9 L 408.2 123.3 L 408.9 122.1 L 409.5 119.7 L 410.2 120.8 L 411.4 120.8 L 412.1 117.2 L 412.7 117.8 L 413.4 119.5 L 414.0 106.5 L 414.7 106.4 L 416.0 103.6 L 416.6 105.5 L 417.3 104.8 L 417.9 97.0 L 418.5 93.0 L 419.2 77.5 L 420.5 77.6 L 421.1 78.3 L 421.8 65.0 L 422.4 51.6 L 423.1 59.5 L 423.7 47.0 L 425.0 45.7 L 425.6 53.6 L 426.3 56.3 L 426.9 79.4 L 427.6 61.6 L 428.2 75.6 L 429.5 76.0 L 430.2 86.2 L 430.8 84.5 L 431.5 88.3 L 432.1 80.9 L 432.7 81.3 L 434.0 80.9 L 434.7 76.6 L 435.3 67.8 L 436.0 70.6 L 436.6 80.9 L 437.3 88.8 L 438.6 90.5 L 439.2 84.3 L 439.8 75.1 L 440.5 72.1 L 441.1 61.5 L 441.8 56.7 L 443.1 57.2 L 443.7 53.5 L 444.4 61.1 L 445.0 64.0 L 445.7 70.4 L 446.3 74.3 L 447.6 74.6 L 448.2 68.5 L 448.9 68.2 L 449.5 67.4 L 450.2 76.1 L 450.8 80.1 L 452.1 79.6 L 452.8 81.3 L 453.4 89.1 L 454.0 101.3 L 454.7 108.7 L 455.3 106.8 L 456.6 105.5 L 457.3 102.4 L 457.9 105.6 L 458.6 118.8 L 459.2 112.0 L 459.9 107.1 L 461.1 106.2 L 461.8 103.2 L 462.4 107.9 L 463.1 119.1 L 463.7 123.1 L 464.4 126.3 L 465.7 125.8 L 466.3 115.8 L 467.0 102.7 L 467.6 98.2 L 468.2 99.7 L 468.9 92.0 L 470.2 89.8 L 470.8 88.7 L 471.5 80.1 L 472.1 82.7 L 472.8 86.4 L 473.4 89.6 L 474.7 87.1 L 475.3 84.6 L 476.0 103.1 L 476.6 112.5 L 477.3 109.8 L 477.9 99.7 L 479.2 99.2 L 479.9 113.9 L 480.5 113.4 L 481.1 116.7 L 481.8 111.4 L 482.4 112.3 L 483.7 108.3 L 484.4 113.4 L 485.0 110.5 L 485.7 117.5 L 486.3 119.4 L 487.0 118.8 L 488.2 120.1 L 488.9 117.8 L 489.5 104.4 L 490.2 107.2 L 490.8 107.1 L 491.5 104.1 L 492.8 88.4 L 493.4 109.6 L 494.1 104.6 L 494.1 299 L 493.4 299 L 492.8 299 L 491.5 299 L 490.8 299 L 490.2 299 L 489.5 299 L 488.9 299 L 488.2 299 L 487.0 299 L 486.3 299 L 485.7 299 L 485.0 299 L 484.4 299 L 483.7 299 L 482.4 299 L 481.8 299 L 481.1 299 L 480.5 299 L 479.9 299 L 479.2 299 L 477.9 299 L 477.3 299 L 476.6 299 L 476.0 299 L 475.3 299 L 474.7 299 L 473.4 299 L 472.8 299 L 472.1 299 L 471.5 299 L 470.8 299 L 470.2 299 L 468.9 299 L 468.2 299 L 467.6 299 L 467.0 299 L 466.3 299 L 465.7 299 L 464.4 299 L 463.7 299 L 463.1 299 L 462.4 299 L 461.8 299 L 461.1 299 L 459.9 299 L 459.2 299 L 458.6 299 L 457.9 299 L 457.3 299 L 456.6 299 L 455.3 299 L 454.7 299 L 454.0 299 L 453.4 299 L 452.8 299 L 452.1 299 L 450.8 299 L 450.2 299 L 449.5 299 L 448.9 299 L 448.2 299 L 447.6 299 L 446.3 299 L 445.7 299 L 445.0 299 L 444.4 299 L 443.7 299 L 443.1 299 L 441.8 299 L 441.1 299 L 440.5 299 L 439.8 299 L 439.2 299 L 438.6 299 L 437.3 299 L 436.6 299 L 436.0 299 L 435.3 299 L 434.7 299 L 434.0 299 L 432.7 299 L 432.1 299 L 431.5 299 L 430.8 299 L 430.2 299 L 429.5 299 L 428.2 299 L 427.6 299 L 426.9 299 L 426.3 299 L 425.6 299 L 425.0 299 L 423.7 299 L 423.1 299 L 422.4 299 L 421.8 299 L 421.1 299 L 420.5 299 L 419.2 299 L 418.5 299 L 417.9 299 L 417.3 299 L 416.6 299 L 416.0 299 L 414.7 299 L 414.0 299 L 413.4 299 L 412.7 299 L 412.1 299 L 411.4 299 L 410.2 299 L 409.5 299 L 408.9 299 L 408.2 299 L 407.6 299 L 406.9 299 L 405.6 299 L 405.0 299 L 404.3 299 L 403.7 299 L 403.1 299 L 402.4 299 L 401.1 299 L 400.5 299 L 399.8 299 L 399.2 299 L 398.5 299 L 397.9 299 L 396.6 299 L 396.0 299 L 395.3 299 L 394.7 299 L 394.0 299 L 393.4 299 L 392.1 299 L 391.4 299 L 390.8 299 L 390.1 299 L 389.5 299 L 388.9 299 L 387.6 299 L 386.9 299 L 386.3 299 L 385.6 299 L 385.0 299 L 384.3 299 L 383.0 299 L 382.4 299 L 381.8 299 L 381.1 299 L 380.5 299 L 379.8 299 L 378.5 299 L 377.9 299 L 377.2 299 L 376.6 299 L 375.9 299 L 375.3 299 L 374.0 299 L 373.4 299 L 372.7 299 L 372.1 299 L 371.4 299 L 370.8 299 L 369.5 299 L 368.8 299 L 368.2 299 L 367.6 299 L 366.9 299 L 366.3 299 L 365.0 299 L 364.3 299 L 363.7 299 L 363.0 299 L 362.4 299 L 361.8 299 L 360.5 299 L 359.8 299 L 359.2 299 L 358.5 299 L 357.9 299 L 357.2 299 L 355.9 299 L 355.3 299 L 354.7 299 L 354.0 299 L 353.4 299 L 352.7 299 L 351.4 299 L 350.8 299 L 350.1 299 L 349.5 299 L 348.8 299 L 348.2 299 L 346.9 299 L 346.3 299 L 345.6 299 L 345.0 299 L 344.3 299 L 343.7 299 L 342.4 299 L 341.7 299 L 341.1 299 L 340.5 299 L 339.8 299 L 339.2 299 L 337.9 299 L 337.2 299 L 336.6 299 L 335.9 299 L 335.3 299 L 334.6 299 L 333.4 299 L 332.7 299 L 332.1 299 L 331.4 299 L 330.8 299 L 330.1 299 L 328.8 299 L 328.2 299 L 327.5 299 L 326.9 299 L 326.3 299 L 325.6 299 L 324.3 299 L 323.7 299 L 323.0 299 L 322.4 299 L 321.7 299 L 321.1 299 L 319.8 299 L 319.2 299 L 318.5 299 L 317.9 299 L 317.2 299 L 316.6 299 L 315.3 299 L 314.6 299 L 314.0 299 L 313.3 299 L 312.7 299 L 312.1 299 L 310.8 299 L 310.1 299 L 309.5 299 L 308.8 299 L 308.2 299 L 307.5 299 L 306.2 299 L 305.6 299 L 305.0 299 L 304.3 299 L 303.7 299 L 303.0 299 L 301.7 299 L 301.1 299 L 300.4 299 L 299.8 299 L 299.1 299 L 298.5 299 L 297.2 299 L 296.6 299 L 295.9 299 L 295.3 299 L 294.6 299 L 294.0 299 L 292.7 299 L 292.0 299 L 291.4 299 L 290.8 299 L 290.1 299 L 289.5 299 L 288.2 299 L 287.5 299 L 286.9 299 L 286.2 299 L 285.6 299 L 284.9 299 L 283.7 299 L 283.0 299 L 282.4 299 L 281.7 299 L 281.1 299 L 280.4 299 L 279.1 299 L 278.5 299 L 277.8 299 L 277.2 299 L 276.6 299 L 275.9 299 L 274.6 299 L 274.0 299 L 273.3 299 L 272.7 299 L 272.0 299 L 271.4 299 L 270.1 299 L 269.5 299 L 268.8 299 L 268.2 299 L 267.5 299 L 266.9 299 L 265.6 299 L 264.9 299 L 264.3 299 L 263.6 299 L 263.0 299 L 262.4 299 L 261.1 299 L 260.4 299 L 259.8 299 L 259.1 299 L 258.5 299 L 257.8 299 L 256.5 299 L 255.9 299 L 255.3 299 L 254.6 299 L 254.0 299 L 253.3 299 L 252.0 299 L 251.4 299 L 250.7 299 L 250.1 299 L 249.5 299 L 248.8 299 L 247.5 299 L 246.9 299 L 246.2 299 L 245.6 299 L 244.9 299 L 244.3 299 L 243.0 299 L 242.4 299 L 241.7 299 L 241.1 299 L 240.4 299 L 239.8 299 L 238.5 299 L 237.8 299 L 237.2 299 L 236.5 299 L 235.9 299 L 235.3 299 L 234.0 299 L 233.3 299 L 232.7 299 L 232.0 299 L 231.4 299 L 230.7 299 L 229.4 299 L 228.8 299 L 228.2 299 L 227.5 299 L 226.9 299 L 226.2 299 L 224.9 299 L 224.3 299 L 223.6 299 L 223.0 299 L 222.3 299 L 221.7 299 L 220.4 299 L 219.8 299 L 219.1 299 L 218.5 299 L 217.8 299 L 217.2 299 L 215.9 299 L 215.2 299 L 214.6 299 L 214.0 299 L 213.3 299 L 212.7 299 L 211.4 299 L 210.7 299 L 210.1 299 L 209.4 299 L 208.8 299 L 208.1 299 L 206.9 299 L 206.2 299 L 205.6 299 L 204.9 299 L 204.3 299 L 203.6 299 L 202.3 299 L 201.7 299 L 201.0 299 L 200.4 299 L 199.8 299 L 199.1 299 L 197.8 299 L 197.2 299 L 196.5 299 L 195.9 299 L 195.2 299 L 194.6 299 L 193.3 299 L 192.7 299 L 192.0 299 L 191.4 299 L 190.7 299 L 190.1 299 L 188.8 299 L 188.1 299 L 187.5 299 L 186.8 299 L 186.2 299 L 185.6 299 L 184.3 299 L 183.6 299 L 183.0 299 L 182.3 299 L 181.7 299 L 181.0 299 L 179.7 299 L 179.1 299 L 178.5 299 L 177.8 299 L 177.2 299 L 176.5 299 L 175.2 299 L 174.6 299 L 173.9 299 L 173.3 299 L 172.6 299 L 172.0 299 L 170.7 299 L 170.1 299 L 169.4 299 L 168.8 299 L 168.1 299 L 167.5 299 L 166.2 299 L 165.5 299 L 164.9 299 L 164.3 299 L 163.6 299 L 163.0 299 L 161.7 299 L 161.0 299 L 160.4 299 L 159.7 299 L 159.1 299 L 158.4 299 L 157.2 299 L 156.5 299 L 155.9 299 L 155.2 299 L 154.6 299 L 153.9 299 L 152.6 299 L 152.0 299 L 151.3 299 L 150.7 299 L 150.1 299 L 149.4 299 L 148.1 299 L 147.5 299 L 146.8 299 L 146.2 299 L 145.5 299 L 144.9 299 L 143.6 299 L 143.0 299 L 142.3 299 L 141.7 299 L 141.0 299 L 140.4 299 L 139.1 299 L 138.4 299 L 137.8 299 L 137.1 299 L 136.5 299 L 135.9 299 L 134.6 299 L 133.9 299 L 133.3 299 L 132.6 299 L 132.0 299 L 131.3 299 L 130.1 299 L 129.4 299 L 128.8 299 L 128.1 299 L 127.5 299 L 126.8 299 L 125.5 299 L 124.9 299 L 124.2 299 L 123.6 299 L 123.0 299 L 122.3 299 L 121.0 299 L 120.4 299 L 119.7 299 L 119.1 299 L 118.4 299 L 117.8 299 L 116.5 299 L 115.9 299 L 115.2 299 L 114.6 299 L 113.9 299 L 113.3 299 L 112.0 299 L 111.3 299 L 110.7 299 L 110.0 299 L 109.4 299 L 108.8 299 L 107.5 299 L 106.8 299 L 106.2 299 L 105.5 299 L 104.9 299 L 104.2 299 L 102.9 299 L 102.3 299 L 101.7 299 L 101.0 299 L 100.4 299 L 99.7 299 L 98.4 299 L 97.8 299 L 97.1 299 L 96.5 299 L 95.8 299 L 95.2 299 L 93.9 299 L 93.3 299 L 92.6 299 L 92.0 299 L 91.3 299 L 90.7 299 L 89.4 299 L 88.7 299 L 88.1 299 L 87.5 299 L 86.8 299 L 86.2 299 L 84.9 299 L 84.2 299 L 83.6 299 L 82.9 299 L 82.3 299 L 81.6 299 L 80.4 299 L 79.7 299 L 79.1 299 L 78.4 299 L 77.8 299 L 77.1 299 L 75.8 299 L 75.2 299 L 74.5 299 L 73.9 299 L 73.3 299 L 72.6 299 L 71.3 299 L 70.7 299 L 70.0 299 L 69.4 299 L 68.7 299 L 68.1 299 L 66.8 299 L 66.2 299 L 65.5 299 L 64.9 299 L 64.2 299 L 63.6 299 L 62.3 299 L 61.6 299 L 61.0 299 L 60.3 299 L 59.7 299 L 59.1 299 L 57.8 299 L 57.1 299 L 56.5 299 L 55.8 299 L 55.2 299 L 54.5 299 L 53.2 299 L 52.6 299 L 52.0 299 L 51.3 299 L 50.7 299 L 50.0 299 L 48.7 299 L 48.1 299 L 47.4 299 L 46.8 299 L 46.1 299 L 45.5 299 L 44.2 299 L 43.6 299 L 42.9 299 L 42.3 299 L 41.6 299 L 41.0 299 L 39.7 299 L 39.0 299 L 38.4 299 L 37.8 299 L 37.1 299 L 36.5 299 L 35.2 299 L 34.5 299 L 33.9 299 L 33.2 299 L 32.6 299 L 31.9 299 L 30.7 299 L 30.0 299 L 29.4 299 L 28.7 299 L 28.1 299 L 27.4 299 L 26.1 299 L 25.5 299 L 24.8 299 L 24.2 299 L 23.6 299 L 22.9 299 L 21.6 299 L 21.0 299 L 20.3 299 L 19.7 299 L 19.0 299 L 18.4 299 L 17.1 299 L 16.5 299 L 15.8 299 L 15.2 299 L 14.5 299 L 13.9 299 L 12.6 299 L 11.9 299 L 11.3 299 L 10.7 299 L 10.0 299 L 9.4 299 L 8.1 299 L 7.4 299 L 6.8 299 L 6.1 299 L 5.5 299 L 4.8 299" class="highcharts-area">
			</path>
			<path fill="none" d="M 4.8 229.7 L 5.5 234.4 L 6.1 234.7 L 6.8 235.4 L 7.4 244.2 L 8.1 242.9 L 9.4 241.7 L 10.0 244.8 L 10.7 248.1 L 11.3 249.3 L 11.9 251.4 L 12.6 249.9 L 13.9 250.4 L 14.5 251.1 L 15.2 252.5 L 15.8 247.0 L 16.5 242.7 L 17.1 237.1 L 18.4 236.2 L 19.0 236.9 L 19.7 234.8 L 20.3 230.7 L 21.0 232.1 L 21.6 230.5 L 22.9 230.5 L 23.6 233.8 L 24.2 228.7 L 24.8 230.5 L 25.5 224.8 L 26.1 219.9 L 27.4 218.8 L 28.1 222.2 L 28.7 216.8 L 29.4 228.7 L 30.0 235.7 L 30.7 234.0 L 31.9 233.6 L 32.6 233.7 L 33.2 239.3 L 33.9 237.3 L 34.5 236.4 L 35.2 238.3 L 36.5 239.2 L 37.1 240.7 L 37.8 242.9 L 38.4 241.6 L 39.0 246.0 L 39.7 246.1 L 41.0 246.5 L 41.6 245.1 L 42.3 245.1 L 42.9 247.3 L 43.6 242.0 L 44.2 246.2 L 45.5 245.9 L 46.1 244.9 L 46.8 247.6 L 47.4 249.3 L 48.1 251.8 L 48.7 249.7 L 50.0 249.4 L 50.7 247.2 L 51.3 245.1 L 52.0 244.8 L 52.6 249.9 L 53.2 248.9 L 54.5 248.8 L 55.2 249.2 L 55.8 253.8 L 56.5 250.4 L 57.1 250.4 L 57.8 251.9 L 59.1 252.0 L 59.7 251.1 L 60.3 252.4 L 61.0 249.4 L 61.6 243.9 L 62.3 242.9 L 63.6 241.9 L 64.2 241.0 L 64.9 239.8 L 65.5 242.0 L 66.2 237.0 L 66.8 240.3 L 68.1 240.0 L 68.7 244.7 L 69.4 245.4 L 70.0 247.9 L 70.7 247.2 L 71.3 246.9 L 72.6 250.5 L 73.3 249.1 L 73.9 250.5 L 74.5 259.5 L 75.2 260.0 L 75.8 259.7 L 77.1 260.2 L 77.8 258.0 L 78.4 256.9 L 79.1 259.8 L 79.7 257.8 L 80.4 259.5 L 81.6 258.1 L 82.3 259.8 L 82.9 259.8 L 83.6 262.6 L 84.2 264.8 L 84.9 261.5 L 86.2 262.1 L 86.8 262.9 L 87.5 262.3 L 88.1 259.8 L 88.7 259.4 L 89.4 260.6 L 90.7 261.4 L 91.3 261.7 L 92.0 259.6 L 92.6 260.2 L 93.3 267.9 L 93.9 268.4 L 95.2 268.2 L 95.8 268.3 L 96.5 273.4 L 97.1 273.2 L 97.8 274.3 L 98.4 274.6 L 99.7 274.6 L 100.4 273.5 L 101.0 271.5 L 101.7 271.0 L 102.3 263.0 L 102.9 257.6 L 104.2 258.0 L 104.9 259.2 L 105.5 257.0 L 106.2 259.1 L 106.8 253.9 L 107.5 251.2 L 108.8 249.9 L 109.4 253.1 L 110.0 254.9 L 110.7 257.6 L 111.3 256.2 L 112.0 258.1 L 113.3 257.4 L 113.9 258.6 L 114.6 260.5 L 115.2 255.0 L 115.9 257.3 L 116.5 261.5 L 117.8 261.2 L 118.4 259.2 L 119.1 262.2 L 119.7 262.6 L 120.4 264.1 L 121.0 263.3 L 122.3 262.9 L 123.0 260.6 L 123.6 263.2 L 124.2 263.4 L 124.9 267.4 L 125.5 269.3 L 126.8 269.4 L 127.5 271.1 L 128.1 272.3 L 128.8 273.6 L 129.4 272.0 L 130.1 271.4 L 131.3 271.2 L 132.0 272.3 L 132.6 272.7 L 133.3 268.4 L 133.9 267.2 L 134.6 267.6 L 135.9 268.0 L 136.5 269.0 L 137.1 268.3 L 137.8 268.1 L 138.4 268.7 L 139.1 271.3 L 140.4 271.8 L 141.0 274.6 L 141.7 271.5 L 142.3 271.9 L 143.0 267.7 L 143.6 263.2 L 144.9 263.6 L 145.5 265.3 L 146.2 264.6 L 146.8 262.5 L 147.5 264.2 L 148.1 267.5 L 149.4 267.6 L 150.1 267.6 L 150.7 268.1 L 151.3 264.1 L 152.0 265.0 L 152.6 260.6 L 153.9 259.9 L 154.6 261.2 L 155.2 261.8 L 155.9 261.0 L 156.5 269.0 L 157.2 268.0 L 158.4 268.5 L 159.1 267.7 L 159.7 267.5 L 160.4 267.2 L 161.0 261.4 L 161.7 257.6 L 163.0 257.7 L 163.6 259.8 L 164.3 259.4 L 164.9 260.2 L 165.5 263.3 L 166.2 265.7 L 167.5 264.8 L 168.1 266.3 L 168.8 265.9 L 169.4 263.5 L 170.1 268.2 L 170.7 268.7 L 172.0 269.0 L 172.6 269.5 L 173.3 272.2 L 173.9 270.9 L 174.6 270.1 L 175.2 271.2 L 176.5 271.0 L 177.2 271.0 L 177.8 271.5 L 178.5 268.5 L 179.1 269.5 L 179.7 274.5 L 181.0 273.1 L 181.7 271.0 L 182.3 271.4 L 183.0 270.8 L 183.6 277.5 L 184.3 278.4 L 185.6 278.4 L 186.2 278.3 L 186.8 277.4 L 187.5 279.8 L 188.1 278.0 L 188.8 280.3 L 190.1 280.2 L 190.7 280.7 L 191.4 281.3 L 192.0 276.1 L 192.7 273.2 L 193.3 274.1 L 194.6 274.3 L 195.2 276.4 L 195.9 275.8 L 196.5 273.5 L 197.2 271.2 L 197.8 271.9 L 199.1 271.8 L 199.8 272.9 L 200.4 274.0 L 201.0 272.6 L 201.7 270.1 L 202.3 269.2 L 203.6 269.2 L 204.3 271.2 L 204.9 274.2 L 205.6 277.2 L 206.2 279.0 L 206.9 278.8 L 208.1 276.8 L 208.8 275.4 L 209.4 275.1 L 210.1 275.2 L 210.7 275.2 L 211.4 275.2 L 212.7 275.1 L 213.3 274.0 L 214.0 274.6 L 214.6 275.2 L 215.2 276.1 L 215.9 276.1 L 217.2 276.4 L 217.8 277.0 L 218.5 275.0 L 219.1 277.9 L 219.8 278.0 L 220.4 278.1 L 221.7 278.1 L 222.3 278.3 L 223.0 281.0 L 223.6 280.2 L 224.3 276.5 L 224.9 272.2 L 226.2 272.3 L 226.9 272.1 L 227.5 269.3 L 228.2 269.9 L 228.8 269.6 L 229.4 268.9 L 230.7 269.2 L 231.4 269.5 L 232.0 269.2 L 232.7 268.4 L 233.3 266.8 L 234.0 265.6 L 235.3 265.3 L 235.9 266.2 L 236.5 265.6 L 237.2 263.3 L 237.8 264.0 L 238.5 265.4 L 239.8 265.3 L 240.4 263.6 L 241.1 265.3 L 241.7 263.8 L 242.4 267.0 L 243.0 266.1 L 244.3 266.4 L 244.9 263.5 L 245.6 261.0 L 246.2 260.2 L 246.9 261.2 L 247.5 260.7 L 248.8 260.3 L 249.5 262.4 L 250.1 260.9 L 250.7 263.5 L 251.4 264.2 L 252.0 263.8 L 253.3 263.4 L 254.0 264.1 L 254.6 264.1 L 255.3 265.4 L 255.9 264.4 L 256.5 266.4 L 257.8 266.1 L 258.5 268.7 L 259.1 268.1 L 259.8 267.1 L 260.4 264.4 L 261.1 263.5 L 262.4 263.1 L 263.0 264.1 L 263.6 264.5 L 264.3 266.2 L 264.9 264.3 L 265.6 264.2 L 266.9 263.9 L 267.5 264.9 L 268.2 262.2 L 268.8 259.8 L 269.5 259.9 L 270.1 259.7 L 271.4 260.1 L 272.0 259.6 L 272.7 256.4 L 273.3 256.4 L 274.0 256.3 L 274.6 254.5 L 275.9 254.4 L 276.6 255.1 L 277.2 253.3 L 277.8 252.7 L 278.5 252.2 L 279.1 254.5 L 280.4 254.4 L 281.1 254.1 L 281.7 251.4 L 282.4 251.9 L 283.0 250.8 L 283.7 253.4 L 284.9 253.1 L 285.6 252.1 L 286.2 251.1 L 286.9 250.9 L 287.5 250.9 L 288.2 252.8 L 289.5 252.2 L 290.1 250.8 L 290.8 248.3 L 291.4 245.0 L 292.0 246.2 L 292.7 244.0 L 294.0 241.4 L 294.6 241.1 L 295.3 239.8 L 295.9 241.1 L 296.6 240.6 L 297.2 237.8 L 298.5 237.4 L 299.1 237.4 L 299.8 237.8 L 300.4 238.8 L 301.1 226.7 L 301.7 227.0 L 303.0 227.1 L 303.7 223.9 L 304.3 226.2 L 305.0 225.0 L 305.6 225.6 L 306.2 227.9 L 307.5 227.5 L 308.2 226.5 L 308.8 227.6 L 309.5 222.0 L 310.1 225.3 L 310.8 219.8 L 312.1 220.4 L 312.7 221.0 L 313.3 220.8 L 314.0 216.8 L 314.6 214.9 L 315.3 210.8 L 316.6 210.1 L 317.2 210.9 L 317.9 207.7 L 318.5 207.1 L 319.2 209.9 L 319.8 200.4 L 321.1 200.1 L 321.7 209.0 L 322.4 209.9 L 323.0 213.9 L 323.7 211.2 L 324.3 207.4 L 325.6 208.1 L 326.3 215.0 L 326.9 209.2 L 327.5 220.2 L 328.2 218.6 L 328.8 215.7 L 330.1 214.8 L 330.8 217.9 L 331.4 212.8 L 332.1 208.8 L 332.7 208.6 L 333.4 209.9 L 334.6 210.3 L 335.3 211.7 L 335.9 213.9 L 336.6 207.7 L 337.2 206.4 L 337.9 200.9 L 339.2 199.4 L 339.8 198.1 L 340.5 202.2 L 341.1 198.4 L 341.7 191.2 L 342.4 196.3 L 343.7 196.8 L 344.3 194.2 L 345.0 197.7 L 345.6 195.3 L 346.3 197.8 L 346.9 200.8 L 348.2 200.5 L 348.8 196.1 L 349.5 201.7 L 350.1 202.8 L 350.8 201.8 L 351.4 192.2 L 352.7 191.1 L 353.4 195.6 L 354.0 197.7 L 354.7 199.7 L 355.3 197.1 L 355.9 196.2 L 357.2 195.3 L 357.9 197.3 L 358.5 191.8 L 359.2 187.0 L 359.8 191.5 L 360.5 185.4 L 361.8 185.8 L 362.4 187.4 L 363.0 191.2 L 363.7 195.9 L 364.3 193.6 L 365.0 196.9 L 366.3 196.9 L 366.9 195.3 L 367.6 200.0 L 368.2 189.1 L 368.8 185.4 L 369.5 181.6 L 370.8 181.3 L 371.4 181.7 L 372.1 177.9 L 372.7 179.4 L 373.4 181.1 L 374.0 178.1 L 375.3 177.6 L 375.9 176.5 L 376.6 176.9 L 377.2 172.8 L 377.9 173.2 L 378.5 166.3 L 379.8 162.3 L 380.5 161.4 L 381.1 158.3 L 381.8 154.7 L 382.4 151.4 L 383.0 154.9 L 384.3 156.9 L 385.0 154.3 L 385.6 149.9 L 386.3 151.2 L 386.9 139.7 L 387.6 135.2 L 388.9 134.7 L 389.5 137.8 L 390.1 133.7 L 390.8 138.2 L 391.4 119.7 L 392.1 107.4 L 393.4 100.6 L 394.0 109.8 L 394.7 120.8 L 395.3 113.7 L 396.0 116.2 L 396.6 113.7 L 397.9 115.3 L 398.5 117.9 L 399.2 128.5 L 399.8 118.3 L 400.5 128.2 L 401.1 115.9 L 402.4 115.7 L 403.1 116.5 L 403.7 116.3 L 404.3 117.3 L 405.0 122.5 L 405.6 121.2 L 406.9 122.1 L 407.6 118.9 L 408.2 123.3 L 408.9 122.1 L 409.5 119.7 L 410.2 120.8 L 411.4 120.8 L 412.1 117.2 L 412.7 117.8 L 413.4 119.5 L 414.0 106.5 L 414.7 106.4 L 416.0 103.6 L 416.6 105.5 L 417.3 104.8 L 417.9 97.0 L 418.5 93.0 L 419.2 77.5 L 420.5 77.6 L 421.1 78.3 L 421.8 65.0 L 422.4 51.6 L 423.1 59.5 L 423.7 47.0 L 425.0 45.7 L 425.6 53.6 L 426.3 56.3 L 426.9 79.4 L 427.6 61.6 L 428.2 75.6 L 429.5 76.0 L 430.2 86.2 L 430.8 84.5 L 431.5 88.3 L 432.1 80.9 L 432.7 81.3 L 434.0 80.9 L 434.7 76.6 L 435.3 67.8 L 436.0 70.6 L 436.6 80.9 L 437.3 88.8 L 438.6 90.5 L 439.2 84.3 L 439.8 75.1 L 440.5 72.1 L 441.1 61.5 L 441.8 56.7 L 443.1 57.2 L 443.7 53.5 L 444.4 61.1 L 445.0 64.0 L 445.7 70.4 L 446.3 74.3 L 447.6 74.6 L 448.2 68.5 L 448.9 68.2 L 449.5 67.4 L 450.2 76.1 L 450.8 80.1 L 452.1 79.6 L 452.8 81.3 L 453.4 89.1 L 454.0 101.3 L 454.7 108.7 L 455.3 106.8 L 456.6 105.5 L 457.3 102.4 L 457.9 105.6 L 458.6 118.8 L 459.2 112.0 L 459.9 107.1 L 461.1 106.2 L 461.8 103.2 L 462.4 107.9 L 463.1 119.1 L 463.7 123.1 L 464.4 126.3 L 465.7 125.8 L 466.3 115.8 L 467.0 102.7 L 467.6 98.2 L 468.2 99.7 L 468.9 92.0 L 470.2 89.8 L 470.8 88.7 L 471.5 80.1 L 472.1 82.7 L 472.8 86.4 L 473.4 89.6 L 474.7 87.1 L 475.3 84.6 L 476.0 103.1 L 476.6 112.5 L 477.3 109.8 L 477.9 99.7 L 479.2 99.2 L 479.9 113.9 L 480.5 113.4 L 481.1 116.7 L 481.8 111.4 L 482.4 112.3 L 483.7 108.3 L 484.4 113.4 L 485.0 110.5 L 485.7 117.5 L 486.3 119.4 L 487.0 118.8 L 488.2 120.1 L 488.9 117.8 L 489.5 104.4 L 490.2 107.2 L 490.8 107.1 L 491.5 104.1 L 492.8 88.4 L 493.4 109.6 L 494.1 104.6" class="highcharts-graph" stroke="#7cb5ec" stroke-width="1" stroke-linejoin="round" stroke-linecap="round">
			</path>
			<path fill="none" d="M -5.1 229.7 L 4.8 229.7 L 5.5 234.4 L 6.1 234.7 L 6.8 235.4 L 7.4 244.2 L 8.1 242.9 L 9.4 241.7 L 10.0 244.8 L 10.7 248.1 L 11.3 249.3 L 11.9 251.4 L 12.6 249.9 L 13.9 250.4 L 14.5 251.1 L 15.2 252.5 L 15.8 247.0 L 16.5 242.7 L 17.1 237.1 L 18.4 236.2 L 19.0 236.9 L 19.7 234.8 L 20.3 230.7 L 21.0 232.1 L 21.6 230.5 L 22.9 230.5 L 23.6 233.8 L 24.2 228.7 L 24.8 230.5 L 25.5 224.8 L 26.1 219.9 L 27.4 218.8 L 28.1 222.2 L 28.7 216.8 L 29.4 228.7 L 30.0 235.7 L 30.7 234.0 L 31.9 233.6 L 32.6 233.7 L 33.2 239.3 L 33.9 237.3 L 34.5 236.4 L 35.2 238.3 L 36.5 239.2 L 37.1 240.7 L 37.8 242.9 L 38.4 241.6 L 39.0 246.0 L 39.7 246.1 L 41.0 246.5 L 41.6 245.1 L 42.3 245.1 L 42.9 247.3 L 43.6 242.0 L 44.2 246.2 L 45.5 245.9 L 46.1 244.9 L 46.8 247.6 L 47.4 249.3 L 48.1 251.8 L 48.7 249.7 L 50.0 249.4 L 50.7 247.2 L 51.3 245.1 L 52.0 244.8 L 52.6 249.9 L 53.2 248.9 L 54.5 248.8 L 55.2 249.2 L 55.8 253.8 L 56.5 250.4 L 57.1 250.4 L 57.8 251.9 L 59.1 252.0 L 59.7 251.1 L 60.3 252.4 L 61.0 249.4 L 61.6 243.9 L 62.3 242.9 L 63.6 241.9 L 64.2 241.0 L 64.9 239.8 L 65.5 242.0 L 66.2 237.0 L 66.8 240.3 L 68.1 240.0 L 68.7 244.7 L 69.4 245.4 L 70.0 247.9 L 70.7 247.2 L 71.3 246.9 L 72.6 250.5 L 73.3 249.1 L 73.9 250.5 L 74.5 259.5 L 75.2 260.0 L 75.8 259.7 L 77.1 260.2 L 77.8 258.0 L 78.4 256.9 L 79.1 259.8 L 79.7 257.8 L 80.4 259.5 L 81.6 258.1 L 82.3 259.8 L 82.9 259.8 L 83.6 262.6 L 84.2 264.8 L 84.9 261.5 L 86.2 262.1 L 86.8 262.9 L 87.5 262.3 L 88.1 259.8 L 88.7 259.4 L 89.4 260.6 L 90.7 261.4 L 91.3 261.7 L 92.0 259.6 L 92.6 260.2 L 93.3 267.9 L 93.9 268.4 L 95.2 268.2 L 95.8 268.3 L 96.5 273.4 L 97.1 273.2 L 97.8 274.3 L 98.4 274.6 L 99.7 274.6 L 100.4 273.5 L 101.0 271.5 L 101.7 271.0 L 102.3 263.0 L 102.9 257.6 L 104.2 258.0 L 104.9 259.2 L 105.5 257.0 L 106.2 259.1 L 106.8 253.9 L 107.5 251.2 L 108.8 249.9 L 109.4 253.1 L 110.0 254.9 L 110.7 257.6 L 111.3 256.2 L 112.0 258.1 L 113.3 257.4 L 113.9 258.6 L 114.6 260.5 L 115.2 255.0 L 115.9 257.3 L 116.5 261.5 L 117.8 261.2 L 118.4 259.2 L 119.1 262.2 L 119.7 262.6 L 120.4 264.1 L 121.0 263.3 L 122.3 262.9 L 123.0 260.6 L 123.6 263.2 L 124.2 263.4 L 124.9 267.4 L 125.5 269.3 L 126.8 269.4 L 127.5 271.1 L 128.1 272.3 L 128.8 273.6 L 129.4 272.0 L 130.1 271.4 L 131.3 271.2 L 132.0 272.3 L 132.6 272.7 L 133.3 268.4 L 133.9 267.2 L 134.6 267.6 L 135.9 268.0 L 136.5 269.0 L 137.1 268.3 L 137.8 268.1 L 138.4 268.7 L 139.1 271.3 L 140.4 271.8 L 141.0 274.6 L 141.7 271.5 L 142.3 271.9 L 143.0 267.7 L 143.6 263.2 L 144.9 263.6 L 145.5 265.3 L 146.2 264.6 L 146.8 262.5 L 147.5 264.2 L 148.1 267.5 L 149.4 267.6 L 150.1 267.6 L 150.7 268.1 L 151.3 264.1 L 152.0 265.0 L 152.6 260.6 L 153.9 259.9 L 154.6 261.2 L 155.2 261.8 L 155.9 261.0 L 156.5 269.0 L 157.2 268.0 L 158.4 268.5 L 159.1 267.7 L 159.7 267.5 L 160.4 267.2 L 161.0 261.4 L 161.7 257.6 L 163.0 257.7 L 163.6 259.8 L 164.3 259.4 L 164.9 260.2 L 165.5 263.3 L 166.2 265.7 L 167.5 264.8 L 168.1 266.3 L 168.8 265.9 L 169.4 263.5 L 170.1 268.2 L 170.7 268.7 L 172.0 269.0 L 172.6 269.5 L 173.3 272.2 L 173.9 270.9 L 174.6 270.1 L 175.2 271.2 L 176.5 271.0 L 177.2 271.0 L 177.8 271.5 L 178.5 268.5 L 179.1 269.5 L 179.7 274.5 L 181.0 273.1 L 181.7 271.0 L 182.3 271.4 L 183.0 270.8 L 183.6 277.5 L 184.3 278.4 L 185.6 278.4 L 186.2 278.3 L 186.8 277.4 L 187.5 279.8 L 188.1 278.0 L 188.8 280.3 L 190.1 280.2 L 190.7 280.7 L 191.4 281.3 L 192.0 276.1 L 192.7 273.2 L 193.3 274.1 L 194.6 274.3 L 195.2 276.4 L 195.9 275.8 L 196.5 273.5 L 197.2 271.2 L 197.8 271.9 L 199.1 271.8 L 199.8 272.9 L 200.4 274.0 L 201.0 272.6 L 201.7 270.1 L 202.3 269.2 L 203.6 269.2 L 204.3 271.2 L 204.9 274.2 L 205.6 277.2 L 206.2 279.0 L 206.9 278.8 L 208.1 276.8 L 208.8 275.4 L 209.4 275.1 L 210.1 275.2 L 210.7 275.2 L 211.4 275.2 L 212.7 275.1 L 213.3 274.0 L 214.0 274.6 L 214.6 275.2 L 215.2 276.1 L 215.9 276.1 L 217.2 276.4 L 217.8 277.0 L 218.5 275.0 L 219.1 277.9 L 219.8 278.0 L 220.4 278.1 L 221.7 278.1 L 222.3 278.3 L 223.0 281.0 L 223.6 280.2 L 224.3 276.5 L 224.9 272.2 L 226.2 272.3 L 226.9 272.1 L 227.5 269.3 L 228.2 269.9 L 228.8 269.6 L 229.4 268.9 L 230.7 269.2 L 231.4 269.5 L 232.0 269.2 L 232.7 268.4 L 233.3 266.8 L 234.0 265.6 L 235.3 265.3 L 235.9 266.2 L 236.5 265.6 L 237.2 263.3 L 237.8 264.0 L 238.5 265.4 L 239.8 265.3 L 240.4 263.6 L 241.1 265.3 L 241.7 263.8 L 242.4 267.0 L 243.0 266.1 L 244.3 266.4 L 244.9 263.5 L 245.6 261.0 L 246.2 260.2 L 246.9 261.2 L 247.5 260.7 L 248.8 260.3 L 249.5 262.4 L 250.1 260.9 L 250.7 263.5 L 251.4 264.2 L 252.0 263.8 L 253.3 263.4 L 254.0 264.1 L 254.6 264.1 L 255.3 265.4 L 255.9 264.4 L 256.5 266.4 L 257.8 266.1 L 258.5 268.7 L 259.1 268.1 L 259.8 267.1 L 260.4 264.4 L 261.1 263.5 L 262.4 263.1 L 263.0 264.1 L 263.6 264.5 L 264.3 266.2 L 264.9 264.3 L 265.6 264.2 L 266.9 263.9 L 267.5 264.9 L 268.2 262.2 L 268.8 259.8 L 269.5 259.9 L 270.1 259.7 L 271.4 260.1 L 272.0 259.6 L 272.7 256.4 L 273.3 256.4 L 274.0 256.3 L 274.6 254.5 L 275.9 254.4 L 276.6 255.1 L 277.2 253.3 L 277.8 252.7 L 278.5 252.2 L 279.1 254.5 L 280.4 254.4 L 281.1 254.1 L 281.7 251.4 L 282.4 251.9 L 283.0 250.8 L 283.7 253.4 L 284.9 253.1 L 285.6 252.1 L 286.2 251.1 L 286.9 250.9 L 287.5 250.9 L 288.2 252.8 L 289.5 252.2 L 290.1 250.8 L 290.8 248.3 L 291.4 245.0 L 292.0 246.2 L 292.7 244.0 L 294.0 241.4 L 294.6 241.1 L 295.3 239.8 L 295.9 241.1 L 296.6 240.6 L 297.2 237.8 L 298.5 237.4 L 299.1 237.4 L 299.8 237.8 L 300.4 238.8 L 301.1 226.7 L 301.7 227.0 L 303.0 227.1 L 303.7 223.9 L 304.3 226.2 L 305.0 225.0 L 305.6 225.6 L 306.2 227.9 L 307.5 227.5 L 308.2 226.5 L 308.8 227.6 L 309.5 222.0 L 310.1 225.3 L 310.8 219.8 L 312.1 220.4 L 312.7 221.0 L 313.3 220.8 L 314.0 216.8 L 314.6 214.9 L 315.3 210.8 L 316.6 210.1 L 317.2 210.9 L 317.9 207.7 L 318.5 207.1 L 319.2 209.9 L 319.8 200.4 L 321.1 200.1 L 321.7 209.0 L 322.4 209.9 L 323.0 213.9 L 323.7 211.2 L 324.3 207.4 L 325.6 208.1 L 326.3 215.0 L 326.9 209.2 L 327.5 220.2 L 328.2 218.6 L 328.8 215.7 L 330.1 214.8 L 330.8 217.9 L 331.4 212.8 L 332.1 208.8 L 332.7 208.6 L 333.4 209.9 L 334.6 210.3 L 335.3 211.7 L 335.9 213.9 L 336.6 207.7 L 337.2 206.4 L 337.9 200.9 L 339.2 199.4 L 339.8 198.1 L 340.5 202.2 L 341.1 198.4 L 341.7 191.2 L 342.4 196.3 L 343.7 196.8 L 344.3 194.2 L 345.0 197.7 L 345.6 195.3 L 346.3 197.8 L 346.9 200.8 L 348.2 200.5 L 348.8 196.1 L 349.5 201.7 L 350.1 202.8 L 350.8 201.8 L 351.4 192.2 L 352.7 191.1 L 353.4 195.6 L 354.0 197.7 L 354.7 199.7 L 355.3 197.1 L 355.9 196.2 L 357.2 195.3 L 357.9 197.3 L 358.5 191.8 L 359.2 187.0 L 359.8 191.5 L 360.5 185.4 L 361.8 185.8 L 362.4 187.4 L 363.0 191.2 L 363.7 195.9 L 364.3 193.6 L 365.0 196.9 L 366.3 196.9 L 366.9 195.3 L 367.6 200.0 L 368.2 189.1 L 368.8 185.4 L 369.5 181.6 L 370.8 181.3 L 371.4 181.7 L 372.1 177.9 L 372.7 179.4 L 373.4 181.1 L 374.0 178.1 L 375.3 177.6 L 375.9 176.5 L 376.6 176.9 L 377.2 172.8 L 377.9 173.2 L 378.5 166.3 L 379.8 162.3 L 380.5 161.4 L 381.1 158.3 L 381.8 154.7 L 382.4 151.4 L 383.0 154.9 L 384.3 156.9 L 385.0 154.3 L 385.6 149.9 L 386.3 151.2 L 386.9 139.7 L 387.6 135.2 L 388.9 134.7 L 389.5 137.8 L 390.1 133.7 L 390.8 138.2 L 391.4 119.7 L 392.1 107.4 L 393.4 100.6 L 394.0 109.8 L 394.7 120.8 L 395.3 113.7 L 396.0 116.2 L 396.6 113.7 L 397.9 115.3 L 398.5 117.9 L 399.2 128.5 L 399.8 118.3 L 400.5 128.2 L 401.1 115.9 L 402.4 115.7 L 403.1 116.5 L 403.7 116.3 L 404.3 117.3 L 405.0 122.5 L 405.6 121.2 L 406.9 122.1 L 407.6 118.9 L 408.2 123.3 L 408.9 122.1 L 409.5 119.7 L 410.2 120.8 L 411.4 120.8 L 412.1 117.2 L 412.7 117.8 L 413.4 119.5 L 414.0 106.5 L 414.7 106.4 L 416.0 103.6 L 416.6 105.5 L 417.3 104.8 L 417.9 97.0 L 418.5 93.0 L 419.2 77.5 L 420.5 77.6 L 421.1 78.3 L 421.8 65.0 L 422.4 51.6 L 423.1 59.5 L 423.7 47.0 L 425.0 45.7 L 425.6 53.6 L 426.3 56.3 L 426.9 79.4 L 427.6 61.6 L 428.2 75.6 L 429.5 76.0 L 430.2 86.2 L 430.8 84.5 L 431.5 88.3 L 432.1 80.9 L 432.7 81.3 L 434.0 80.9 L 434.7 76.6 L 435.3 67.8 L 436.0 70.6 L 436.6 80.9 L 437.3 88.8 L 438.6 90.5 L 439.2 84.3 L 439.8 75.1 L 440.5 72.1 L 441.1 61.5 L 441.8 56.7 L 443.1 57.2 L 443.7 53.5 L 444.4 61.1 L 445.0 64.0 L 445.7 70.4 L 446.3 74.3 L 447.6 74.6 L 448.2 68.5 L 448.9 68.2 L 449.5 67.4 L 450.2 76.1 L 450.8 80.1 L 452.1 79.6 L 452.8 81.3 L 453.4 89.1 L 454.0 101.3 L 454.7 108.7 L 455.3 106.8 L 456.6 105.5 L 457.3 102.4 L 457.9 105.6 L 458.6 118.8 L 459.2 112.0 L 459.9 107.1 L 461.1 106.2 L 461.8 103.2 L 462.4 107.9 L 463.1 119.1 L 463.7 123.1 L 464.4 126.3 L 465.7 125.8 L 466.3 115.8 L 467.0 102.7 L 467.6 98.2 L 468.2 99.7 L 468.9 92.0 L 470.2 89.8 L 470.8 88.7 L 471.5 80.1 L 472.1 82.7 L 472.8 86.4 L 473.4 89.6 L 474.7 87.1 L 475.3 84.6 L 476.0 103.1 L 476.6 112.5 L 477.3 109.8 L 477.9 99.7 L 479.2 99.2 L 479.9 113.9 L 480.5 113.4 L 481.1 116.7 L 481.8 111.4 L 482.4 112.3 L 483.7 108.3 L 484.4 113.4 L 485.0 110.5 L 485.7 117.5 L 486.3 119.4 L 487.0 118.8 L 488.2 120.1 L 488.9 117.8 L 489.5 104.4 L 490.2 107.2 L 490.8 107.1 L 491.5 104.1 L 492.8 88.4 L 493.4 109.6 L 494.1 104.6 L 504.1 104.6" stroke-linejoin="round" visibility="visible" stroke="rgb(192,192,192)" stroke-opacity="0.0" stroke-width="21" class="highcharts-tracker">
			</path>
		</g>
		<g class="highcharts-markers highcharts-series-0 highcharts-area-series highcharts-color-0 highcharts-tracker" transform="translate(75,63) scale(1 1)" clip-path="none">
		</g>
	</g>
	<g class="highcharts-button highcharts-contextbutton" style="cursor:pointer;" stroke-linecap="round" transform="translate(550,10)">
		<title>Chart context menu
		</title>
		<rect fill="#ffffff" class=" highcharts-button-box" x="0.5" y="0.5" width="24" height="22" rx="2" ry="2" stroke="none" stroke-width="1">
		</rect>
		<path fill="#666666" d="M 6 6.5 L 20 6.5 M 6 11.5 L 20 11.5 M 6 16.5 L 20 16.5" class="highcharts-button-symbol" stroke="#666666" stroke-width="3">
		</path>
		<text x="0" style="font-weight:normal;color:#333333;fill:#333333;" y="12">
		</text>
	</g>
	<text x="292" text-anchor="middle" class="highcharts-title" style="color:#333333;font-size:18px;fill:#333333;" y="24">
		<tspan>USD to EUR exchange rate over time
		</tspan>
	</text>
	<text x="292" text-anchor="middle" class="highcharts-subtitle" style="color:#666666;fill:#666666;" y="46">
		<tspan>Pinch the chart to zoom in
		</tspan>
	</text>
	<g class="highcharts-axis-labels highcharts-xaxis-labels ">
		<text x="217.3" style="color:#666666;cursor:default;font-size:11px;fill:#666666;" text-anchor="middle" transform="translate(0,0)" y="381" opacity="1">
			<tspan>Jan '14
			</tspan>
		</text>
		<text x="452.9" style="color:#666666;cursor:default;font-size:11px;fill:#666666;" text-anchor="middle" transform="translate(0,0)" y="381" opacity="1">
			<tspan>Jan '15
			</tspan>
		</text>
		<text x="98.6" style="color:#666666;cursor:default;font-size:11px;fill:#666666;" text-anchor="middle" transform="translate(0,0)" y="381" opacity="1">
			<tspan>Jul '13
			</tspan>
		</text>
		<text x="334.1" style="color:#666666;cursor:default;font-size:11px;fill:#666666;" text-anchor="middle" transform="translate(0,0)" y="381" opacity="1">
			<tspan>Jul '14
			</tspan>
		</text>
		<text x="557.5" style="color:#666666;cursor:default;font-size:11px;fill:#666666;" text-anchor="middle" transform="translate(0,0)" y="381" opacity="1">
			<tspan>Jul '15
			</tspan>
		</text>
	</g>
	<g class="highcharts-axis-labels highcharts-yaxis-labels ">
		<text x="60" style="color:#666666;cursor:default;font-size:11px;fill:#666666;" text-anchor="end" transform="translate(0,0)" y="366" opacity="1">
			<tspan>0.7
			</tspan>
		</text>
		<text x="60" style="color:#666666;cursor:default;font-size:11px;fill:#666666;" text-anchor="end" transform="translate(0,0)" y="316" opacity="1">
			<tspan>0.7
			</tspan>
		</text>
		<text x="60" style="color:#666666;cursor:default;font-size:11px;fill:#666666;" text-anchor="end" transform="translate(0,0)" y="266" opacity="1">
			<tspan>0.8
			</tspan>
		</text>
		<text x="60" style="color:#666666;cursor:default;font-size:11px;fill:#666666;" text-anchor="end" transform="translate(0,0)" y="216" opacity="1">
			<tspan>0.8
			</tspan>
		</text>
		<text x="60" style="color:#666666;cursor:default;font-size:11px;fill:#666666;" text-anchor="end" transform="translate(0,0)" y="166" opacity="1">
			<tspan>0.9
			</tspan>
		</text>
		<text x="60" style="color:#666666;cursor:default;font-size:11px;fill:#666666;" text-anchor="end" transform="translate(0,0)" y="116" opacity="1">
			<tspan>0.9
			</tspan>
		</text>
		<text x="60" style="color:#666666;cursor:default;font-size:11px;fill:#666666;" text-anchor="end" transform="translate(0,0)" y="67" opacity="1">
			<tspan>1
			</tspan>
		</text>
	</g>
	<text x="574" class="highcharts-credits" text-anchor="end" style="cursor:pointer;color:#999999;font-size:9px;fill:#999999;" y="395">Highcharts.com
	</text>
</svg>